<svg width="47" height="50" viewBox="0 0 47 50" fill="none" xmlns="http://www.w3.org/2000/svg">
<mask id="path-1-inside-1_31_2" fill="white">
<path d="M40 42C40 46.4183 36.4183 50 32 50L10 50L10 34H32C36.4183 34 40 37.5817 40 42Z"/>
</mask>
<path d="M43 42C43 48.0751 38.0751 53 32 53H10V47H32C34.7614 47 37 44.7614 37 42H43ZM10 31L32 31C38.0751 31 43 35.9249 43 42H37C37 39.2386 34.7614 37 32 37H10L10 31ZM32 31C38.0751 31 43 35.9249 43 42C43 48.0751 38.0751 53 32 53V47C34.7614 47 37 44.7614 37 42C37 39.2386 34.7614 37 32 37V31ZM10 50L10 34L10 50Z" fill="#14FB00" mask="url(#path-1-inside-1_31_2)"/>
<line x1="16" y1="38.9" x2="32" y2="38.9" stroke="#8E8E8E" stroke-width="0.2"/>
<line x1="18" y1="41.9" x2="34" y2="41.9" stroke="#8E8E8E" stroke-width="0.2"/>
<line x1="16" y1="44.9" x2="32" y2="44.9" stroke="#8E8E8E" stroke-width="0.2"/>
<mask id="path-6-inside-2_31_2" fill="white">
<path d="M40 29C40 33.4183 36.4183 37 32 37H10L10 21L32 21C36.4183 21 40 24.5817 40 29Z"/>
</mask>
<path d="M43 29C43 35.0751 38.0751 40 32 40H10V34H32C34.7614 34 37 31.7614 37 29H43ZM10 18L32 18C38.0751 18 43 22.9249 43 29H37C37 26.2386 34.7614 24 32 24L10 24V18ZM32 18C38.0751 18 43 22.9249 43 29C43 35.0751 38.0751 40 32 40V34C34.7614 34 37 31.7614 37 29C37 26.2386 34.7614 24 32 24V18ZM10 37L10 21L10 37Z" fill="#FF00E6" mask="url(#path-6-inside-2_31_2)"/>
<line x1="17" y1="25.9" x2="33" y2="25.9" stroke="#8E8E8E" stroke-width="0.2"/>
<line x1="19" y1="28.9" x2="35" y2="28.9" stroke="#8E8E8E" stroke-width="0.2"/>
<line x1="17" y1="31.9" x2="33" y2="31.9" stroke="#8E8E8E" stroke-width="0.2"/>
<line x1="0.646447" y1="28.6464" x2="23.6464" y2="5.64645" stroke="#FF6B00"/>
<line x1="46.6464" y1="29.3536" x2="23.6464" y2="6.35355" stroke="#FF6B00"/>
<path fill-rule="evenodd" clip-rule="evenodd" d="M40 0H39.2V2H40V0ZM36.2 0H39V2H38.2H38H36.2V0ZM38 2.2V4H37.2H37H35.2V2.2H38ZM35 4H34.2H34H33V2.2H35V4ZM33 4.2V6H34V4.2H33ZM33 8V6.2H35V8H33ZM33 8.2V10H34H34.2H36V8.2H33ZM33 12V10.2H34V12H33ZM33 12.2V14H34H34.2H36V12.2H33ZM33 15V14.2H34V16L33 15ZM34 16L34.2058 16.2H36V18L34 16ZM38 18H36.2V16.2H39V18H38.2H38ZM40 18H39.2V16.2H40L40 18ZM38.2 18.2H40V20H38.2V18.2ZM38 20V18.2H36.2L38 20ZM40 20.2H38.2L40 22V20.2ZM34.2 16H36H36.2H37V14.2H34.2V16ZM37.2 16H39H39.2H40L40 14.2H37.2V16ZM37.2 14H37H36.2V12.2H39V14H37.2ZM40 14H39.2V12.2H40V14ZM39.2 12H40V10.2H37.2V12H39H39.2ZM37 12V10.2H34.2V12H36H36.2H37ZM40 8.2V10H39.2V8.2H40ZM39 8.2V10H37.2H37H36.2V8.2H39ZM40 8V6.2H38.2V8H39H39.2H40ZM38 8V6.2H35.2V8H36H36.2H38ZM40 4.2V6H38.2H38H37.2V4.2H40ZM37 4.2V6H35.2H35H34.2V4.2H37ZM40 4V2.2H38.2V4H40ZM33 0H36V2H35.2H35H33V0Z" fill="#D9D9D9"/>
</svg>
