<svg width="289" height="72" viewBox="0 0 289 72" fill="none" xmlns="http://www.w3.org/2000/svg">
<path d="M2.06953 62.9L4.54953 66.83L7.03953 62.9H7.60953L4.80953 67.32V70H4.29953V67.3L1.50953 62.9H2.06953ZM17.9854 70.05C17.4921 70.05 17.0421 69.95 16.6354 69.75C16.2287 69.5433 15.8787 69.27 15.5854 68.93C15.2921 68.59 15.0654 68.2067 14.9054 67.78C14.7454 67.3467 14.6654 66.9033 14.6654 66.45C14.6654 65.9767 14.7487 65.5267 14.9154 65.1C15.0821 64.6667 15.3154 64.2833 15.6154 63.95C15.9221 63.61 16.2754 63.3433 16.6754 63.15C17.0821 62.95 17.5221 62.85 17.9954 62.85C18.4954 62.85 18.9454 62.9533 19.3454 63.16C19.7521 63.3667 20.1021 63.6433 20.3954 63.99C20.6887 64.3367 20.9154 64.7233 21.0754 65.15C21.2354 65.5767 21.3154 66.01 21.3154 66.45C21.3154 66.93 21.2321 67.3867 21.0654 67.82C20.8987 68.2467 20.6621 68.63 20.3554 68.97C20.0554 69.3033 19.7021 69.5667 19.2954 69.76C18.8954 69.9533 18.4587 70.05 17.9854 70.05ZM15.1754 66.45C15.1754 66.8567 15.2454 67.2467 15.3854 67.62C15.5254 67.9933 15.7187 68.3267 15.9654 68.62C16.2187 68.9133 16.5154 69.1467 16.8554 69.32C17.2021 69.4933 17.5821 69.58 17.9954 69.58C18.4154 69.58 18.7987 69.49 19.1454 69.31C19.4921 69.13 19.7887 68.89 20.0354 68.59C20.2821 68.29 20.4687 67.9567 20.5954 67.59C20.7287 67.2167 20.7954 66.8367 20.7954 66.45C20.7954 66.0433 20.7254 65.6533 20.5854 65.28C20.4521 64.9067 20.2587 64.5733 20.0054 64.28C19.7521 63.9867 19.4521 63.7533 19.1054 63.58C18.7654 63.4067 18.3954 63.32 17.9954 63.32C17.5687 63.32 17.1821 63.41 16.8354 63.59C16.4887 63.77 16.1921 64.01 15.9454 64.31C15.7054 64.61 15.5154 64.9467 15.3754 65.32C15.2421 65.6867 15.1754 66.0633 15.1754 66.45ZM32.4447 70.05C31.878 70.05 31.4047 69.95 31.0247 69.75C30.6447 69.55 30.3414 69.28 30.1147 68.94C29.888 68.5933 29.7247 68.2067 29.6247 67.78C29.5247 67.3533 29.4747 66.9167 29.4747 66.47V62.9H29.9847V66.47C29.9847 66.8567 30.0247 67.2367 30.1047 67.61C30.1847 67.9833 30.3147 68.32 30.4947 68.62C30.6814 68.9133 30.9314 69.1467 31.2447 69.32C31.5647 69.4933 31.9614 69.58 32.4347 69.58C32.9147 69.58 33.3114 69.49 33.6247 69.31C33.9447 69.13 34.1947 68.8933 34.3747 68.6C34.5614 68.3 34.6914 67.9667 34.7647 67.6C34.8447 67.2267 34.8847 66.85 34.8847 66.47V62.9H35.3947V66.47C35.3947 66.9433 35.3414 67.3967 35.2347 67.83C35.1347 68.2567 34.968 68.6367 34.7347 68.97C34.5014 69.3033 34.198 69.5667 33.8247 69.76C33.4514 69.9533 32.9914 70.05 32.4447 70.05ZM44.0433 70V62.9H46.9933C47.3 62.9 47.5766 62.9633 47.8233 63.09C48.0766 63.2167 48.2933 63.3867 48.4733 63.6C48.66 63.8067 48.8033 64.04 48.9033 64.3C49.01 64.56 49.0633 64.8267 49.0633 65.1C49.0633 65.4533 48.9933 65.7833 48.8533 66.09C48.7133 66.3967 48.5166 66.6533 48.2633 66.86C48.0166 67.0667 47.7266 67.1933 47.3933 67.24L49.1633 70H48.5733L46.8533 67.32H44.5533V70H44.0433ZM44.5533 66.85H47.0433C47.35 66.85 47.6166 66.7667 47.8433 66.6C48.07 66.4333 48.2433 66.2167 48.3633 65.95C48.49 65.6833 48.5533 65.4 48.5533 65.1C48.5533 64.7933 48.48 64.51 48.3333 64.25C48.1933 63.9833 48.0033 63.77 47.7633 63.61C47.53 63.4433 47.2666 63.36 46.9733 63.36H44.5533V66.85ZM72.4058 62.9V70H71.8958V66.6H67.4158V70H66.9058V62.9H67.4158V66.14H71.8958V62.9H72.4058ZM83.9893 70.05C83.496 70.05 83.046 69.95 82.6393 69.75C82.2326 69.5433 81.8826 69.27 81.5893 68.93C81.296 68.59 81.0693 68.2067 80.9093 67.78C80.7493 67.3467 80.6693 66.9033 80.6693 66.45C80.6693 65.9767 80.7526 65.5267 80.9193 65.1C81.086 64.6667 81.3193 64.2833 81.6193 63.95C81.926 63.61 82.2793 63.3433 82.6793 63.15C83.086 62.95 83.526 62.85 83.9993 62.85C84.4993 62.85 84.9493 62.9533 85.3493 63.16C85.756 63.3667 86.106 63.6433 86.3993 63.99C86.6926 64.3367 86.9193 64.7233 87.0793 65.15C87.2393 65.5767 87.3193 66.01 87.3193 66.45C87.3193 66.93 87.236 67.3867 87.0693 67.82C86.9026 68.2467 86.666 68.63 86.3593 68.97C86.0593 69.3033 85.706 69.5667 85.2993 69.76C84.8993 69.9533 84.4626 70.05 83.9893 70.05ZM81.1793 66.45C81.1793 66.8567 81.2493 67.2467 81.3893 67.62C81.5293 67.9933 81.7226 68.3267 81.9693 68.62C82.2226 68.9133 82.5193 69.1467 82.8593 69.32C83.206 69.4933 83.586 69.58 83.9993 69.58C84.4193 69.58 84.8026 69.49 85.1493 69.31C85.496 69.13 85.7926 68.89 86.0393 68.59C86.286 68.29 86.4726 67.9567 86.5993 67.59C86.7326 67.2167 86.7993 66.8367 86.7993 66.45C86.7993 66.0433 86.7293 65.6533 86.5893 65.28C86.456 64.9067 86.2626 64.5733 86.0093 64.28C85.756 63.9867 85.456 63.7533 85.1093 63.58C84.7693 63.4067 84.3993 63.32 83.9993 63.32C83.5726 63.32 83.186 63.41 82.8393 63.59C82.4926 63.77 82.196 64.01 81.9493 64.31C81.7093 64.61 81.5193 64.9467 81.3793 65.32C81.246 65.6867 81.1793 66.0633 81.1793 66.45ZM102.019 70V63.89L99.2286 68.67H98.8886L96.0986 63.89V70H95.5886V62.9H96.0986L99.0586 67.98L102.019 62.9H102.529V70H102.019ZM116.017 69.54V70H111.287V62.9H115.927V63.36H111.797V66.15H115.407V66.59H111.797V69.54H116.017ZM136.609 70.05C136.115 70.05 135.665 69.95 135.259 69.75C134.852 69.5433 134.502 69.27 134.209 68.93C133.915 68.59 133.689 68.2067 133.529 67.78C133.369 67.3467 133.289 66.9033 133.289 66.45C133.289 65.9767 133.372 65.5267 133.539 65.1C133.705 64.6667 133.939 64.2833 134.239 63.95C134.545 63.61 134.899 63.3433 135.299 63.15C135.705 62.95 136.145 62.85 136.619 62.85C137.119 62.85 137.569 62.9533 137.969 63.16C138.375 63.3667 138.725 63.6433 139.019 63.99C139.312 64.3367 139.539 64.7233 139.699 65.15C139.859 65.5767 139.939 66.01 139.939 66.45C139.939 66.93 139.855 67.3867 139.689 67.82C139.522 68.2467 139.285 68.63 138.979 68.97C138.679 69.3033 138.325 69.5667 137.919 69.76C137.519 69.9533 137.082 70.05 136.609 70.05ZM133.799 66.45C133.799 66.8567 133.869 67.2467 134.009 67.62C134.149 67.9933 134.342 68.3267 134.589 68.62C134.842 68.9133 135.139 69.1467 135.479 69.32C135.825 69.4933 136.205 69.58 136.619 69.58C137.039 69.58 137.422 69.49 137.769 69.31C138.115 69.13 138.412 68.89 138.659 68.59C138.905 68.29 139.092 67.9567 139.219 67.59C139.352 67.2167 139.419 66.8367 139.419 66.45C139.419 66.0433 139.349 65.6533 139.209 65.28C139.075 64.9067 138.882 64.5733 138.629 64.28C138.375 63.9867 138.075 63.7533 137.729 63.58C137.389 63.4067 137.019 63.32 136.619 63.32C136.192 63.32 135.805 63.41 135.459 63.59C135.112 63.77 134.815 64.01 134.569 64.31C134.329 64.61 134.139 64.9467 133.999 65.32C133.865 65.6867 133.799 66.0633 133.799 66.45ZM148.208 70V62.9H152.828V63.36H148.718V66.18H152.208V66.62H148.718V70H148.208ZM170.28 70V62.9H170.79V67.21L174.93 62.9H175.52L172.57 66.01L175.67 70H175.08L172.23 66.33L170.79 67.81V70H170.28ZM184.037 63.85V70H183.527V62.9H183.947L188.897 69.15V62.9H189.407V70H188.907L184.037 63.85ZM200.992 70.05C200.498 70.05 200.048 69.95 199.642 69.75C199.235 69.5433 198.885 69.27 198.592 68.93C198.298 68.59 198.072 68.2067 197.912 67.78C197.752 67.3467 197.672 66.9033 197.672 66.45C197.672 65.9767 197.755 65.5267 197.922 65.1C198.088 64.6667 198.322 64.2833 198.622 63.95C198.928 63.61 199.282 63.3433 199.682 63.15C200.088 62.95 200.528 62.85 201.002 62.85C201.502 62.85 201.952 62.9533 202.352 63.16C202.758 63.3667 203.108 63.6433 203.402 63.99C203.695 64.3367 203.922 64.7233 204.082 65.15C204.242 65.5767 204.322 66.01 204.322 66.45C204.322 66.93 204.238 67.3867 204.072 67.82C203.905 68.2467 203.668 68.63 203.362 68.97C203.062 69.3033 202.708 69.5667 202.302 69.76C201.902 69.9533 201.465 70.05 200.992 70.05ZM198.182 66.45C198.182 66.8567 198.252 67.2467 198.392 67.62C198.532 67.9933 198.725 68.3267 198.972 68.62C199.225 68.9133 199.522 69.1467 199.862 69.32C200.208 69.4933 200.588 69.58 201.002 69.58C201.422 69.58 201.805 69.49 202.152 69.31C202.498 69.13 202.795 68.89 203.042 68.59C203.288 68.29 203.475 67.9567 203.602 67.59C203.735 67.2167 203.802 66.8367 203.802 66.45C203.802 66.0433 203.732 65.6533 203.592 65.28C203.458 64.9067 203.265 64.5733 203.012 64.28C202.758 63.9867 202.458 63.7533 202.112 63.58C201.772 63.4067 201.402 63.32 201.002 63.32C200.575 63.32 200.188 63.41 199.842 63.59C199.495 63.77 199.198 64.01 198.952 64.31C198.712 64.61 198.522 64.9467 198.382 65.32C198.248 65.6867 198.182 66.0633 198.182 66.45ZM215.047 62.95H215.547L216.607 65.53L217.667 62.95H218.167L216.917 65.94L218.407 69.4L221.127 62.9H221.687L218.647 70H218.177L216.617 66.35L215.047 70H214.577L211.547 62.9H212.097L214.827 69.4L216.297 65.94L215.047 62.95ZM229.657 70V62.9H230.167V69.54H234.407V70H229.657ZM247.098 69.54V70H242.368V62.9H247.008V63.36H242.878V66.15H246.487V66.59H242.878V69.54H247.098ZM255.391 70V62.9H257.751C258.504 62.9 259.127 63.06 259.621 63.38C260.121 63.6933 260.494 64.12 260.741 64.66C260.994 65.1933 261.121 65.7867 261.121 66.44C261.121 67.16 260.984 67.7867 260.711 68.32C260.437 68.8533 260.047 69.2667 259.541 69.56C259.034 69.8533 258.437 70 257.751 70H255.391ZM260.611 66.44C260.611 65.8467 260.497 65.3167 260.271 64.85C260.051 64.3833 259.727 64.02 259.301 63.76C258.881 63.4933 258.364 63.36 257.751 63.36H255.901V69.54H257.751C258.371 69.54 258.894 69.4033 259.321 69.13C259.747 68.8567 260.067 68.4867 260.281 68.02C260.501 67.5467 260.611 67.02 260.611 66.44ZM272.259 70.05C271.779 70.05 271.336 69.9467 270.929 69.74C270.523 69.5333 270.169 69.26 269.869 68.92C269.569 68.5733 269.336 68.1867 269.169 67.76C269.009 67.3267 268.929 66.8867 268.929 66.44C268.929 65.9733 269.009 65.5267 269.169 65.1C269.329 64.6667 269.556 64.2833 269.849 63.95C270.143 63.61 270.489 63.3433 270.889 63.15C271.289 62.95 271.726 62.85 272.199 62.85C272.906 62.85 273.476 62.9967 273.909 63.29C274.349 63.5767 274.683 63.9467 274.909 64.4L274.489 64.65C274.249 64.1833 273.929 63.8467 273.529 63.64C273.136 63.4267 272.689 63.32 272.189 63.32C271.769 63.32 271.389 63.41 271.049 63.59C270.709 63.7633 270.419 64 270.179 64.3C269.939 64.5933 269.756 64.9267 269.629 65.3C269.503 65.6733 269.439 66.0567 269.439 66.45C269.439 66.87 269.513 67.2667 269.659 67.64C269.806 68.0133 270.009 68.3467 270.269 68.64C270.529 68.9333 270.833 69.1633 271.179 69.33C271.526 69.4967 271.896 69.58 272.289 69.58C272.749 69.58 273.183 69.47 273.589 69.25C273.996 69.0233 274.386 68.67 274.759 68.19V68.76C274.053 69.62 273.219 70.05 272.259 70.05ZM274.649 66.96H273.039V66.55H275.089V70H274.649V66.96ZM288.217 69.54V70H283.487V62.9H288.127V63.36H283.997V66.15H287.607V66.59H283.997V69.54H288.217Z" fill="#404040"/>
<path d="M56.725 50.45C54.715 50.45 52.915 50.12 51.325 49.46C49.765 48.8 48.445 47.9 47.365 46.76C46.285 45.62 45.46 44.315 44.89 42.845C44.35 41.375 44.08 39.83 44.08 38.21C44.08 36.56 44.35 35 44.89 33.53C45.46 32.06 46.285 30.755 47.365 29.615C48.445 28.475 49.765 27.575 51.325 26.915C52.915 26.255 54.715 25.925 56.725 25.925C58.735 25.925 60.52 26.255 62.08 26.915C63.64 27.575 64.96 28.475 66.04 29.615C67.12 30.755 67.945 32.06 68.515 33.53C69.085 35 69.37 36.56 69.37 38.21C69.37 39.83 69.085 41.375 68.515 42.845C67.945 44.315 67.12 45.62 66.04 46.76C64.96 47.9 63.64 48.8 62.08 49.46C60.52 50.12 58.735 50.45 56.725 50.45ZM51.46 38.21C51.46 39.44 51.685 40.52 52.135 41.45C52.615 42.38 53.245 43.1 54.025 43.61C54.805 44.12 55.705 44.375 56.725 44.375C57.715 44.375 58.6 44.12 59.38 43.61C60.19 43.07 60.82 42.335 61.27 41.405C61.72 40.475 61.945 39.41 61.945 38.21C61.945 36.98 61.72 35.9 61.27 34.97C60.82 34.04 60.19 33.32 59.38 32.81C58.6 32.3 57.715 32.045 56.725 32.045C55.705 32.045 54.805 32.3 54.025 32.81C53.245 33.32 52.615 34.04 52.135 34.97C51.685 35.9 51.46 36.98 51.46 38.21ZM84.1908 50.45C82.1808 50.45 80.3808 50.12 78.7908 49.46C77.2308 48.8 75.9108 47.9 74.8308 46.76C73.7508 45.62 72.9258 44.315 72.3558 42.845C71.8158 41.375 71.5458 39.83 71.5458 38.21C71.5458 36.56 71.8158 35 72.3558 33.53C72.9258 32.06 73.7508 30.755 74.8308 29.615C75.9108 28.475 77.2308 27.575 78.7908 26.915C80.3808 26.255 82.1808 25.925 84.1908 25.925C86.2008 25.925 87.9858 26.255 89.5458 26.915C91.1058 27.575 92.4258 28.475 93.5058 29.615C94.5858 30.755 95.4108 32.06 95.9808 33.53C96.5508 35 96.8358 36.56 96.8358 38.21C96.8358 39.83 96.5508 41.375 95.9808 42.845C95.4108 44.315 94.5858 45.62 93.5058 46.76C92.4258 47.9 91.1058 48.8 89.5458 49.46C87.9858 50.12 86.2008 50.45 84.1908 50.45ZM78.9258 38.21C78.9258 39.44 79.1508 40.52 79.6008 41.45C80.0808 42.38 80.7108 43.1 81.4908 43.61C82.2708 44.12 83.1708 44.375 84.1908 44.375C85.1808 44.375 86.0658 44.12 86.8458 43.61C87.6558 43.07 88.2858 42.335 88.7358 41.405C89.1858 40.475 89.4108 39.41 89.4108 38.21C89.4108 36.98 89.1858 35.9 88.7358 34.97C88.2858 34.04 87.6558 33.32 86.8458 32.81C86.0658 32.3 85.1808 32.045 84.1908 32.045C83.1708 32.045 82.2708 32.3 81.4908 32.81C80.7108 33.32 80.0808 34.04 79.6008 34.97C79.1508 35.9 78.9258 36.98 78.9258 38.21ZM116.292 50L110.127 40.55L107.607 43.115V50H100.407V17.15H107.607V36.14L115.617 26.375H123.222L114.717 36.545L123.942 50H116.292ZM134.852 50.45C132.842 50.45 130.877 50.12 128.957 49.46C127.037 48.8 125.417 47.825 124.097 46.535L126.572 41.99C128.012 43.04 129.407 43.835 130.757 44.375C132.137 44.915 133.427 45.185 134.627 45.185C135.557 45.185 136.277 45.035 136.787 44.735C137.297 44.435 137.552 43.97 137.552 43.34C137.552 42.89 137.402 42.545 137.102 42.305C136.802 42.035 136.337 41.795 135.707 41.585C135.107 41.375 134.357 41.15 133.457 40.91C131.657 40.31 130.157 39.725 128.957 39.155C127.757 38.585 126.857 37.895 126.257 37.085C125.657 36.245 125.357 35.165 125.357 33.845C125.357 32.255 125.747 30.875 126.527 29.705C127.337 28.505 128.477 27.575 129.947 26.915C131.417 26.255 133.172 25.925 135.212 25.925C136.832 25.925 138.407 26.18 139.937 26.69C141.497 27.2 142.952 28.055 144.302 29.255L141.512 33.755C140.162 32.825 138.962 32.15 137.912 31.73C136.862 31.31 135.842 31.1 134.852 31.1C134.342 31.1 133.877 31.16 133.457 31.28C133.037 31.4 132.692 31.61 132.422 31.91C132.182 32.18 132.062 32.54 132.062 32.99C132.062 33.44 132.182 33.8 132.422 34.07C132.692 34.34 133.097 34.58 133.637 34.79C134.207 34.97 134.912 35.195 135.752 35.465C137.702 36.035 139.322 36.62 140.612 37.22C141.902 37.79 142.862 38.51 143.492 39.38C144.152 40.22 144.482 41.345 144.482 42.755C144.482 45.155 143.612 47.045 141.872 48.425C140.162 49.775 137.822 50.45 134.852 50.45ZM153.845 18.05H155.33L163.565 41.81L181.925 18.05H183.365L176.57 50H175.04L181.16 21.11L163.655 43.79H162.62L154.79 21.11L148.625 50H147.05L153.845 18.05ZM192.991 50.45C191.281 50.45 189.796 49.985 188.536 49.055C187.306 48.125 186.346 46.91 185.656 45.41C184.996 43.88 184.666 42.275 184.666 40.595C184.666 38.765 185.026 36.995 185.746 35.285C186.466 33.575 187.441 32.045 188.671 30.695C189.901 29.315 191.296 28.235 192.856 27.455C194.416 26.645 196.036 26.24 197.716 26.24C199.756 26.24 201.406 26.81 202.666 27.95C203.956 29.06 204.886 30.38 205.456 31.91L206.581 26.6H208.156L203.701 47.435C203.671 47.495 203.641 47.585 203.611 47.705C203.611 47.795 203.611 47.885 203.611 47.975C203.611 48.365 203.821 48.56 204.241 48.56L203.926 50C203.836 50 203.731 50 203.611 50C203.491 50.03 203.386 50.03 203.296 50C202.876 49.94 202.561 49.79 202.351 49.55C202.171 49.28 202.081 48.965 202.081 48.605C202.081 48.485 202.096 48.35 202.126 48.2C202.156 48.02 202.216 47.72 202.306 47.3C202.396 46.85 202.531 46.16 202.711 45.23C201.481 46.79 199.981 48.05 198.211 49.01C196.471 49.97 194.731 50.45 192.991 50.45ZM193.441 49.01C194.341 49.01 195.301 48.83 196.321 48.47C197.341 48.11 198.316 47.63 199.246 47.03C200.206 46.4 201.046 45.68 201.766 44.87C202.486 44.03 202.981 43.16 203.251 42.26L204.961 34.205C204.811 33.035 204.406 31.97 203.746 31.01C203.116 30.02 202.276 29.225 201.226 28.625C200.176 27.995 199.006 27.68 197.716 27.68C196.216 27.68 194.776 28.055 193.396 28.805C192.016 29.555 190.786 30.56 189.706 31.82C188.656 33.05 187.816 34.415 187.186 35.915C186.556 37.415 186.241 38.93 186.241 40.46C186.241 41.99 186.556 43.4 187.186 44.69C187.816 45.98 188.656 47.03 189.706 47.84C190.786 48.62 192.031 49.01 193.441 49.01ZM215.31 26.6H216.84L211.89 50H210.36L215.31 26.6ZM217.335 17.15H218.865L218.055 20.93H216.525L217.335 17.15ZM225.678 50.45C223.938 50.45 222.378 50.15 220.998 49.55C219.648 48.92 218.538 47.99 217.668 46.76L218.703 45.725C219.663 46.865 220.713 47.72 221.853 48.29C223.023 48.83 224.358 49.1 225.858 49.1C227.418 49.1 228.813 48.86 230.043 48.38C231.273 47.87 232.233 47.165 232.923 46.265C233.643 45.335 234.003 44.27 234.003 43.07C234.003 41.78 233.448 40.865 232.338 40.325C231.228 39.755 229.653 39.2 227.613 38.66C226.293 38.3 225.168 37.955 224.238 37.625C223.308 37.295 222.603 36.86 222.123 36.32C221.673 35.75 221.448 34.985 221.448 34.025C221.448 32.315 221.883 30.89 222.753 29.75C223.623 28.58 224.778 27.71 226.218 27.14C227.688 26.54 229.278 26.24 230.988 26.24C232.788 26.24 234.273 26.555 235.443 27.185C236.613 27.815 237.393 28.61 237.783 29.57L236.658 30.335C236.238 29.435 235.473 28.76 234.363 28.31C233.283 27.83 232.053 27.59 230.673 27.59C229.443 27.59 228.228 27.8 227.028 28.22C225.858 28.64 224.883 29.3 224.103 30.2C223.353 31.07 222.978 32.21 222.978 33.62C222.978 34.73 223.413 35.51 224.283 35.96C225.153 36.41 226.458 36.86 228.198 37.31C229.728 37.73 231.033 38.15 232.113 38.57C233.223 38.96 234.078 39.485 234.678 40.145C235.278 40.775 235.578 41.63 235.578 42.71C235.578 44.33 235.143 45.725 234.273 46.895C233.433 48.065 232.263 48.95 230.763 49.55C229.293 50.15 227.598 50.45 225.678 50.45ZM248.721 50.45C246.801 50.45 245.196 50.015 243.906 49.145C242.616 48.275 241.641 47.105 240.981 45.635C240.351 44.135 240.036 42.5 240.036 40.73C240.036 38.69 240.396 36.8 241.116 35.06C241.866 33.32 242.871 31.79 244.131 30.47C245.391 29.12 246.831 28.085 248.451 27.365C250.071 26.615 251.736 26.24 253.446 26.24C255.366 26.24 256.971 26.69 258.261 27.59C259.551 28.46 260.511 29.645 261.141 31.145C261.771 32.615 262.086 34.25 262.086 36.05C262.086 38.06 261.726 39.935 261.006 41.675C260.286 43.415 259.296 44.945 258.036 46.265C256.806 47.585 255.381 48.62 253.761 49.37C252.171 50.09 250.491 50.45 248.721 50.45ZM248.991 49.01C250.461 49.01 251.886 48.695 253.266 48.065C254.646 47.435 255.876 46.535 256.956 45.365C258.066 44.195 258.936 42.845 259.566 41.315C260.226 39.755 260.556 38.09 260.556 36.32C260.556 34.73 260.271 33.29 259.701 32C259.161 30.68 258.351 29.63 257.271 28.85C256.191 28.07 254.826 27.68 253.176 27.68C251.706 27.68 250.281 28.01 248.901 28.67C247.521 29.3 246.276 30.215 245.166 31.415C244.086 32.585 243.216 33.95 242.556 35.51C241.926 37.04 241.611 38.705 241.611 40.505C241.611 42.095 241.881 43.535 242.421 44.825C242.961 46.115 243.786 47.135 244.896 47.885C246.006 48.635 247.371 49.01 248.991 49.01ZM269.846 26.6H271.286L270.071 32.45C270.941 31.22 271.976 30.14 273.176 29.21C274.376 28.28 275.651 27.56 277.001 27.05C278.381 26.51 279.731 26.24 281.051 26.24C282.191 26.24 283.121 26.45 283.841 26.87C284.591 27.29 285.131 27.92 285.461 28.76C285.821 29.6 286.001 30.65 286.001 31.91C286.001 32.6 285.941 33.35 285.821 34.16C285.731 34.97 285.596 35.84 285.416 36.77L282.626 50H281.096L283.841 36.95C284.051 36.05 284.186 35.24 284.246 34.52C284.336 33.77 284.381 33.08 284.381 32.45C284.381 30.83 284.051 29.63 283.391 28.85C282.731 28.07 281.741 27.68 280.421 27.68C279.101 27.68 277.736 28.025 276.326 28.715C274.916 29.375 273.611 30.29 272.411 31.46C271.211 32.6 270.251 33.905 269.531 35.375L266.426 50H264.896L269.846 26.6Z" fill="#404040"/>
<mask id="path-3-inside-1_25_117" fill="white">
<path d="M40 42C40 46.4183 36.4183 50 32 50L10 50L10 34H32C36.4183 34 40 37.5817 40 42V42Z"/>
</mask>
<path d="M43 42C43 48.0751 38.0751 53 32 53H10V47H32C34.7614 47 37 44.7614 37 42H43ZM10 31L32 31C38.0751 31 43 35.9249 43 42H37C37 39.2386 34.7614 37 32 37H10L10 31ZM32 31C38.0751 31 43 35.9249 43 42C43 48.0751 38.0751 53 32 53V47C34.7614 47 37 44.7614 37 42C37 39.2386 34.7614 37 32 37V31ZM10 50L10 34L10 50Z" fill="#14FB00" mask="url(#path-3-inside-1_25_117)"/>
<line x1="16" y1="38.9" x2="32" y2="38.9" stroke="#8E8E8E" stroke-width="0.2"/>
<line x1="18" y1="41.9" x2="34" y2="41.9" stroke="#8E8E8E" stroke-width="0.2"/>
<line x1="16" y1="44.9" x2="32" y2="44.9" stroke="#8E8E8E" stroke-width="0.2"/>
<mask id="path-8-inside-2_25_117" fill="white">
<path d="M40 29C40 33.4183 36.4183 37 32 37H10L10 21L32 21C36.4183 21 40 24.5817 40 29V29Z"/>
</mask>
<path d="M43 29C43 35.0751 38.0751 40 32 40H10V34H32C34.7614 34 37 31.7614 37 29H43ZM10 18L32 18C38.0751 18 43 22.9249 43 29H37C37 26.2386 34.7614 24 32 24L10 24V18ZM32 18C38.0751 18 43 22.9249 43 29C43 35.0751 38.0751 40 32 40V34C34.7614 34 37 31.7614 37 29C37 26.2386 34.7614 24 32 24V18ZM10 37L10 21L10 37Z" fill="#FC00E3" mask="url(#path-8-inside-2_25_117)"/>
<line x1="17" y1="25.9" x2="33" y2="25.9" stroke="#8E8E8E" stroke-width="0.2"/>
<line x1="19" y1="28.9" x2="35" y2="28.9" stroke="#8E8E8E" stroke-width="0.2"/>
<line x1="17" y1="31.9" x2="33" y2="31.9" stroke="#8E8E8E" stroke-width="0.2"/>
<line x1="0.646447" y1="28.6464" x2="23.6464" y2="5.64645" stroke="#FF6B00"/>
<line x1="46.6464" y1="29.3536" x2="23.6464" y2="6.35355" stroke="#FF6B00"/>
<path fill-rule="evenodd" clip-rule="evenodd" d="M40 0H39.2V2H40V0ZM36.2 0H39V2H38.2H38H36.2V0ZM38 2.2V4H37.2H37H35.2V2.2H38ZM35 4H34.2H34H33V2.2H35V4ZM33 4.2V6H34V4.2H33ZM33 8V6.2H35V8H33ZM33 8.2V10H34H34.2H36V8.2H33ZM33 12V10.2H34V12H33ZM33 12.2V14H34H34.2H36V12.2H33ZM33 15V14.2H34V16L33 15ZM34 16L34.2058 16.2H36V18L34 16ZM38 18H36.2V16.2H39V18H38.2H38ZM40 18H39.2V16.2H40L40 18ZM38.2 18.2H40V20H38.2V18.2ZM38 20V18.2H36.2L38 20ZM40 20.2H38.2L40 22V20.2ZM34.2 16H36H36.2H37V14.2H34.2V16ZM37.2 16H39H39.2H40L40 14.2H37.2V16ZM37.2 14H37H36.2V12.2H39V14H37.2ZM40 14H39.2V12.2H40V14ZM39.2 12H40V10.2H37.2V12H39H39.2ZM37 12V10.2H34.2V12H36H36.2H37ZM40 8.2V10H39.2V8.2H40ZM39 8.2V10H37.2H37H36.2V8.2H39ZM40 8V6.2H38.2V8H39H39.2H40ZM38 8V6.2H35.2V8H36H36.2H38ZM40 4.2V6H38.2H38H37.2V4.2H40ZM37 4.2V6H35.2H35H34.2V4.2H37ZM40 4V2.2H38.2V4H40ZM33 0H36V2H35.2H35H33V0Z" fill="#404040"/>
</svg>
